<?xml version="1.0" standalone="no"?>
<!DOCTYPE svg PUBLIC "-//W3C//DTD SVG 20010904//EN"
 "http://www.w3.org/TR/2001/REC-SVG-20010904/DTD/svg10.dtd">
<svg version="1.0" xmlns="http://www.w3.org/2000/svg"
 width="260.000000pt" height="260.000000pt" viewBox="0 0 260.000000 260.000000"
 preserveAspectRatio="xMidYMid meet">
<metadata>
Created by potrace 1.11, written by Peter Selinger 2001-2013
</metadata>
<g transform="translate(0.000000,260.000000) scale(0.100000,-0.100000)"
fill="#000000" stroke="none">
<path d="M1205 2306 c-38 -7 -92 -21 -120 -31 -161 -56 -328 -216 -397 -377
-55 -130 -56 -151 -57 -914 -1 -624 1 -703 15 -715 12 -10 29 -10 82 -2 77 13
165 34 172 43 3 3 31 18 62 34 71 37 169 123 224 198 60 82 122 251 128 348 2
41 12 48 89 60 39 6 81 15 92 20 11 4 35 13 54 19 131 42 287 181 359 320 105
203 110 406 15 610 -51 110 -171 246 -265 299 -73 42 -194 81 -264 87 -33 3
-72 7 -89 9 -16 2 -61 -1 -100 -8z"/>
</g>
</svg>
